<mxfile host="app.diagrams.net" modified="2022-07-08T12:42:50.721Z" agent="5.0 (Macintosh; Intel Mac OS X 10_15_7) AppleWebKit/537.36 (KHTML, like Gecko) Chrome/103.0.0.0 Safari/537.36" etag="sHp3KkwYYQDir3yyzmYq" version="20.0.4" type="github">
  <diagram id="PaXkhl8Juz0_RCHhhdDI" name="第 1 页">
    <mxGraphModel dx="778" dy="643" grid="1" gridSize="10" guides="1" tooltips="1" connect="1" arrows="1" fold="1" page="1" pageScale="1" pageWidth="827" pageHeight="1169" math="0" shadow="0">
      <root>
        <mxCell id="0" />
        <mxCell id="1" parent="0" />
        <mxCell id="ndAlGtFeWstamqnetgF6-8" style="edgeStyle=orthogonalEdgeStyle;rounded=0;orthogonalLoop=1;jettySize=auto;html=1;entryX=0.5;entryY=1;entryDx=0;entryDy=0;fontSize=32;strokeWidth=2;" edge="1" parent="1" source="ndAlGtFeWstamqnetgF6-1" target="ndAlGtFeWstamqnetgF6-7">
          <mxGeometry relative="1" as="geometry" />
        </mxCell>
        <mxCell id="ndAlGtFeWstamqnetgF6-1" value="" style="triangle;whiteSpace=wrap;html=1;rotation=-180;direction=south;fillColor=#fa6800;fontColor=#000000;strokeColor=#C73500;" vertex="1" parent="1">
          <mxGeometry x="160" y="510" width="80" height="60" as="geometry" />
        </mxCell>
        <mxCell id="ndAlGtFeWstamqnetgF6-2" value="&lt;b&gt;&lt;font style=&quot;font-size: 32px;&quot;&gt;M&lt;/font&gt;&lt;/b&gt;" style="text;html=1;strokeColor=none;fillColor=none;align=center;verticalAlign=middle;whiteSpace=wrap;rounded=0;" vertex="1" parent="1">
          <mxGeometry x="170" y="531" width="60" height="30" as="geometry" />
        </mxCell>
        <mxCell id="ndAlGtFeWstamqnetgF6-10" style="edgeStyle=orthogonalEdgeStyle;rounded=0;orthogonalLoop=1;jettySize=auto;html=1;fontSize=32;strokeWidth=2;" edge="1" parent="1" source="ndAlGtFeWstamqnetgF6-4" target="ndAlGtFeWstamqnetgF6-9">
          <mxGeometry relative="1" as="geometry" />
        </mxCell>
        <mxCell id="ndAlGtFeWstamqnetgF6-4" value="" style="ellipse;whiteSpace=wrap;html=1;aspect=fixed;fontSize=18;fillColor=#60a917;fontColor=#ffffff;strokeColor=#2D7600;" vertex="1" parent="1">
          <mxGeometry x="470" y="80" width="80" height="80" as="geometry" />
        </mxCell>
        <mxCell id="ndAlGtFeWstamqnetgF6-5" value="&lt;b&gt;&lt;font style=&quot;font-size: 32px;&quot;&gt;G&lt;/font&gt;&lt;/b&gt;" style="text;html=1;strokeColor=none;fillColor=none;align=center;verticalAlign=middle;whiteSpace=wrap;rounded=0;fontSize=18;" vertex="1" parent="1">
          <mxGeometry x="480" y="105" width="60" height="30" as="geometry" />
        </mxCell>
        <mxCell id="ndAlGtFeWstamqnetgF6-7" value="" style="rounded=0;whiteSpace=wrap;html=1;fontSize=32;" vertex="1" parent="1">
          <mxGeometry x="160" y="200" width="80" height="270" as="geometry" />
        </mxCell>
        <mxCell id="ndAlGtFeWstamqnetgF6-9" value="" style="rounded=0;whiteSpace=wrap;html=1;fontSize=32;" vertex="1" parent="1">
          <mxGeometry x="470" y="200" width="80" height="270" as="geometry" />
        </mxCell>
        <mxCell id="ndAlGtFeWstamqnetgF6-11" value="Stack" style="rounded=0;whiteSpace=wrap;html=1;fontSize=32;fillColor=#0050ef;fontColor=#ffffff;strokeColor=#001DBC;shadow=1;" vertex="1" parent="1">
          <mxGeometry x="160" y="200" width="80" height="110" as="geometry" />
        </mxCell>
        <mxCell id="ndAlGtFeWstamqnetgF6-12" value="Stack" style="rounded=0;whiteSpace=wrap;html=1;fontSize=32;sketch=0;shadow=1;fillColor=#0050ef;fontColor=#ffffff;strokeColor=#001DBC;" vertex="1" parent="1">
          <mxGeometry x="470" y="360" width="80" height="110" as="geometry" />
        </mxCell>
        <mxCell id="ndAlGtFeWstamqnetgF6-13" value="" style="endArrow=classic;startArrow=classic;html=1;rounded=0;fontSize=18;strokeWidth=2;entryX=0;entryY=0;entryDx=0;entryDy=0;exitX=1;exitY=0;exitDx=0;exitDy=0;dashed=1;" edge="1" parent="1" source="ndAlGtFeWstamqnetgF6-11" target="ndAlGtFeWstamqnetgF6-12">
          <mxGeometry width="50" height="50" relative="1" as="geometry">
            <mxPoint x="240" y="250" as="sourcePoint" />
            <mxPoint x="290" y="200" as="targetPoint" />
          </mxGeometry>
        </mxCell>
        <mxCell id="ndAlGtFeWstamqnetgF6-14" value="" style="endArrow=classic;startArrow=classic;html=1;rounded=0;fontSize=18;strokeWidth=2;exitX=1;exitY=1;exitDx=0;exitDy=0;entryX=0;entryY=1;entryDx=0;entryDy=0;dashed=1;" edge="1" parent="1" source="ndAlGtFeWstamqnetgF6-11" target="ndAlGtFeWstamqnetgF6-12">
          <mxGeometry width="50" height="50" relative="1" as="geometry">
            <mxPoint x="280" y="360" as="sourcePoint" />
            <mxPoint x="330" y="310" as="targetPoint" />
          </mxGeometry>
        </mxCell>
        <mxCell id="ndAlGtFeWstamqnetgF6-15" value="PCR" style="rounded=0;whiteSpace=wrap;html=1;shadow=1;sketch=0;fontSize=18;" vertex="1" parent="1">
          <mxGeometry x="160" y="320" width="80" height="150" as="geometry" />
        </mxCell>
        <mxCell id="ndAlGtFeWstamqnetgF6-16" value="FUNC&lt;br&gt;Logic&lt;br&gt;Code&lt;br&gt;......." style="rounded=0;whiteSpace=wrap;html=1;shadow=1;sketch=0;fontSize=18;" vertex="1" parent="1">
          <mxGeometry x="470" y="200" width="80" height="150" as="geometry" />
        </mxCell>
        <mxCell id="ndAlGtFeWstamqnetgF6-18" value="" style="endArrow=classic;html=1;rounded=0;fontSize=18;strokeWidth=2;entryX=-0.019;entryY=0.445;entryDx=0;entryDy=0;entryPerimeter=0;exitX=1;exitY=0.5;exitDx=0;exitDy=0;fillColor=#e51400;strokeColor=#B20000;" edge="1" parent="1" source="ndAlGtFeWstamqnetgF6-15" target="ndAlGtFeWstamqnetgF6-16">
          <mxGeometry width="50" height="50" relative="1" as="geometry">
            <mxPoint x="240" y="420" as="sourcePoint" />
            <mxPoint x="290" y="370" as="targetPoint" />
          </mxGeometry>
        </mxCell>
      </root>
    </mxGraphModel>
  </diagram>
</mxfile>
